<svg xmlns="http://www.w3.org/2000/svg" width="17" height="15.242" viewBox="8.246 9.876 17 15.242">
    <path d="M8.752 18.746l.015.01v-.021l-.015.011z" fill="none" stroke="#231f20" stroke-linecap="round" stroke-linejoin="round" stroke-miterlimit="10"/>
    <path d="M25.246 18.717a.519.519 0 0 0-.25-.444l-3.84-2.307v-3.102c.003-.022.015-.043.015-.066a.532.532 0 0 0-.222-.408c-.016-.013-.025-.035-.044-.046l-3.984-2.395a.525.525 0 0 0-.536 0l-4.014 2.413c-.052.03-.086.081-.123.126-.018.021-.045.036-.06.06a.512.512 0 0 0-.069.258v3.311l-3.623 2.175a.553.553 0 0 0-.252.464v3.448c0 .182.095.35.252.444l3.998 2.402c.075.04.159.062.244.06.023 0 .044-.017.07-.02l.005.001a.509.509 0 0 0 .266-.072l.001-.001h.001l.001-.002 3.676-2.209 3.732 2.243a.514.514 0 0 0 .26.067c.009 0 .017-.006.023-.006h.002a.518.518 0 0 0 .268-.074l3.948-2.372a.521.521 0 0 0 .25-.444v-3.448c0-.01-.007-.017-.007-.026s.012-.019.012-.03zm-7.49.029l2.515-1.511.494-.295 3.006 1.807-3.006 1.806-3.009-1.807zm-4.992-1.806l3.008 1.807-3.008 1.807-3.006-1.807 3.006-1.807zm3.89-5.941l3.007 1.808-2.828 1.698-.18.108-3.008-1.807 3.009-1.807zm-3.318 10.42l2.835-1.705v2.238l-2.835 1.705v-2.238zm7.964 2.26v-2.238l.244-.146 2.665-1.604v2.239L21.3 23.679z"
          fill="#ffffff"/>
</svg>